<?xml version="1.0" encoding="utf-8"?>
<svg xmlns="http://www.w3.org/2000/svg" viewBox="21.669 19.964 32.0001 27.1128" width="32.0001px" height="27.1128px"><path fill="#FAAB54" d="M 29.509 19.964 C 30.405 20.365 31.817 20.89 32.515 21.562 C 32.862 21.897 33.027 22.208 33.035 22.697 C 33.042 23.234 32.272 23.887 31.922 24.252 C 30.678 24.295 29.989 24.175 28.905 23.546 C 28.51 24.576 27.964 25.462 27.42 26.415 C 27.58 26.754 28.214 26.503 28.594 26.677 C 29.15 26.938 29.539 27.616 30.096 27.829 C 31.006 28.186 31.787 28.122 32.818 28.636 C 33.784 28.237 34.904 28.169 35.819 27.708 C 37.4 26.908 36.901 24.442 37.918 23.126 C 38.405 22.498 39.198 22.087 39.983 21.993 C 40.937 21.878 41.989 22.304 42.729 22.895 C 43.407 23.437 43.932 24.211 44.024 25.088 C 44.197 26.752 42.302 29.109 41.27 30.377 C 41.526 30.543 41.833 30.739 42.123 30.825 C 42.127 30.825 45.905 31.541 45.955 31.546 C 47.305 31.642 47.313 31.04 48.785 31.836 C 48.773 30.991 48.997 30.112 48.952 29.299 C 48.898 28.224 47.145 28.25 46.437 27.616 C 46.065 27.283 45.925 26.767 45.899 26.287 C 45.891 26.055 45.873 25.338 46.04 25.154 C 46.353 24.813 46.799 24.755 47.241 24.736 C 48.081 24.704 49.519 24.783 50.161 25.383 C 50.513 25.711 50.641 26.473 50.84 26.919 C 51.17 27.644 52.495 29.5 52.51 30.119 C 52.514 30.178 52.514 30.24 52.508 30.3 C 53.029 30.778 53.314 31.52 53.481 32.194 C 53.711 33.146 53.814 34.569 53.289 35.433 C 53.08 35.9 51.307 36.642 50.831 36.853 C 48.344 37.961 45.841 38.498 43.249 37.498 C 42.942 38.138 42.505 38.701 42.174 39.328 C 40.886 41.779 41.494 42.496 42.2 44.825 C 42.334 45.263 42.313 45.747 42.095 46.152 C 41.912 46.496 41.592 46.694 41.221 46.805 C 39.147 47.437 35.691 46.899 33.801 45.888 C 31.152 42.44 30.469 37.875 28.348 34.086 C 25.264 32.672 23.836 30.345 21.669 27.906 C 22.876 23.375 26.571 22.989 29.509 19.964 Z" id="object-0"/></svg>